# xmcd
#
# Track frame offsets: 
#        150
#        15860
#        35150
#
# Disc length: 675 seconds
#
# Revision: 6
# Processed by: cddbd v1.5.2PL0 Copyright (c) Steve Scherf et al.
# Submitted via: ExactAudioCopy v1.3
#
DISCID=1802a103
DTITLE=Maki Goto - Afurechau... Be In Love
DYEAR=2001
DGENRE=JPop
TTITLE0=Afurechau... Be In Love
TTITLE1=LIKE A GAME
TTITLE2=Afurechau... Be In Love (Instrumental)
EXTD=YEAR: 2001
EXTT0=
EXTT1=
EXTT2=
PLAYORDER=
